<svg width="26" height="26" viewBox="0 0 26 26" fill="none" xmlns="http://www.w3.org/2000/svg">
<path d="M19.6899 6.32071C19.5917 6.22227 19.475 6.14417 19.3465 6.09089C19.2181 6.0376 19.0803 6.01017 18.9413 6.01017C18.8022 6.01017 18.6645 6.0376 18.536 6.09089C18.4076 6.14417 18.2909 6.22227 18.1926 6.32071L13 11.5027L7.80736 6.31009C7.70905 6.21178 7.59233 6.1338 7.46388 6.08059C7.33543 6.02738 7.19776 6 7.05873 6C6.91969 6 6.78202 6.02738 6.65357 6.08059C6.52512 6.1338 6.40841 6.21178 6.31009 6.31009C6.21178 6.40841 6.1338 6.52512 6.08059 6.65357C6.02738 6.78202 6 6.91969 6 7.05873C6 7.19776 6.02738 7.33543 6.08059 7.46388C6.1338 7.59233 6.21178 7.70905 6.31009 7.80736L11.5027 13L6.31009 18.1926C6.21178 18.291 6.1338 18.4077 6.08059 18.5361C6.02738 18.6646 6 18.8022 6 18.9413C6 19.0803 6.02738 19.218 6.08059 19.3464C6.1338 19.4749 6.21178 19.5916 6.31009 19.6899C6.40841 19.7882 6.52512 19.8662 6.65357 19.9194C6.78202 19.9726 6.91969 20 7.05873 20C7.19776 20 7.33543 19.9726 7.46388 19.9194C7.59233 19.8662 7.70905 19.7882 7.80736 19.6899L13 14.4973L18.1926 19.6899C18.291 19.7882 18.4077 19.8662 18.5361 19.9194C18.6646 19.9726 18.8022 20 18.9413 20C19.0803 20 19.218 19.9726 19.3464 19.9194C19.4749 19.8662 19.5916 19.7882 19.6899 19.6899C19.7882 19.5916 19.8662 19.4749 19.9194 19.3464C19.9726 19.218 20 19.0803 20 18.9413C20 18.8022 19.9726 18.6646 19.9194 18.5361C19.8662 18.4077 19.7882 18.291 19.6899 18.1926L14.4973 13L19.6899 7.80736C20.0934 7.40384 20.0934 6.72423 19.6899 6.32071Z" fill="#455A64" fill-opacity="0.59"/>
</svg>
